<?xml version="1.0" encoding="UTF-8"?>
<svg width="24px" height="24px" viewBox="0 0 200 200" version="1.1" xmlns="http://www.w3.org/2000/svg" xmlns:xlink="http://www.w3.org/1999/xlink">
    <!-- Generator: Sketch 55.2 (78181) - https://sketchapp.com -->
    <title>Artboard</title>
    <desc>Created with Sketch.</desc>
    <g id="Artboard" stroke="none" stroke-width="1" fill="none" fill-rule="evenodd">
        <g id="icon-color" transform="translate(20.000000, 33.000000)" fill-rule="nonzero">
            <path d="M159.555556,3.57333333 C160,3.12666667 160,2.23333333 160,1.78666667 C159.555556,1.34 159.111111,0.893333333 158.666667,0.893333333 L68,0.893333333 C31.1111111,0.893333333 1.33333333,30.3733333 1.33333333,67 C1.33333333,103.626667 31.1111111,133.106667 68,133.106667 C85.7777778,133.106667 102.666667,125.96 115.111111,113.9 C134.222222,95.5866667 144.888889,60.7466667 153.333333,29.0333333 L153.777778,28.14 L154.222222,25.9066667 C154.222222,25.46 154.222222,25.0133333 153.777778,24.5666667 C153.333333,24.12 152.888889,24.12 152.444444,24.12 L141.333333,24.12 C140.888889,24.12 140,23.6733333 140,23.2266667 C139.555556,22.78 140,21.8866667 140.444444,21.44 L159.555556,3.57333333 L159.555556,3.57333333 Z" id="Path_2_" fill="#FF3850"></path>
            <path d="M96,31.7133333 L70.6666667,31.7133333 C64.4444444,31.7133333 59.5555556,36.6266667 59.5555556,42.88 L59.5555556,47.7933333 L68.8888889,47.7933333 L68.8888889,42.88 C68.8888889,41.9866667 69.7777778,41.0933333 70.6666667,41.0933333 L96,41.0933333 C96.8888889,41.0933333 97.7777778,41.9866667 97.7777778,42.88 L97.7777778,68.34 C97.7777778,69.2333333 96.8888889,70.1266667 96,70.1266667 L70.6666667,70.1266667 C69.7777778,70.1266667 68.8888889,69.2333333 68.8888889,68.34 L68.8888889,63.4266667 L59.5555556,63.4266667 L59.5555556,68.34 C59.5555556,74.5933333 64.4444444,79.5066667 70.6666667,79.5066667 L96,79.5066667 C102.222222,79.5066667 107.111111,74.5933333 107.111111,68.34 L107.111111,42.88 C107.111111,36.6266667 102.222222,31.7133333 96,31.7133333 L96,31.7133333 Z M78.6666667,87.1 C78.6666667,87.9933333 77.7777778,88.8866667 76.8888889,88.8866667 L51.5555556,88.8866667 C50.6666667,88.8866667 49.7777778,87.9933333 49.7777778,87.1 L49.7777778,61.64 C49.7777778,60.7466667 50.6666667,59.8533333 51.5555556,59.8533333 L76.8888889,59.8533333 C77.7777778,59.8533333 78.6666667,60.7466667 78.6666667,61.64 L78.6666667,66.5533333 L88,66.5533333 L88,61.64 C88,55.3866667 83.1111111,50.4733333 76.8888889,50.4733333 L51.5555556,50.4733333 C45.3333333,50.4733333 40.4444444,55.3866667 40.4444444,61.64 L40.4444444,87.1 C40.4444444,93.3533333 45.3333333,98.2666667 51.5555556,98.2666667 L76.8888889,98.2666667 C83.1111111,98.2666667 88,93.3533333 88,87.1 L88,82.1866667 L78.6666667,82.1866667 L78.6666667,87.1 L78.6666667,87.1 Z" id="Shape_6_" fill="#FFFFFF"></path>
        </g>
    </g>
</svg>