<svg width="20" height="20" xmlns="http://www.w3.org/2000/svg">

 <g>
  <title>Layer 1</title>
  <g>
   <path fill="#525B4D" d="m3.4929,263.4462c3.34495,6.1298 -0.0065,11.1013 -2.36383,16.2556c-0.52673,1.1508 -0.80124,2.4519 -0.99041,3.714c-0.84389,5.6253 2.2312,10.9057 7.39563,12.8299c5.22285,1.9456 10.31955,0.0835 13.46235,-5.0791c0.9135,-1.5004 1.6581,-3.1725 2.1274,-4.8649c2.4806,-8.9471 0.3255,-17.0011 -4.9437,-24.4051c-3.5574,-4.9966 -7.2612,-9.8976 -10.60524,-15.0333c-2.55207,-3.9181 -4.39101,-8.2321 -4.12486,-13.09051c0.24852,-4.54774 3.94495,-7.7805 8.3109,-7.39843c3.4961,0.30603 5.2989,3.35239 4.7203,8.1301c-0.1772,1.46704 -0.6056,2.90264 -0.8476,4.36504c-0.3367,2.043 -0.8374,4.0971 -0.8514,6.1493c-0.0213,3.0649 1.302,5.5882 4.1685,7.3947c-2.4872,-4.8955 0.8504,-8.7357 1.9131,-12.9625c0.358,-1.4226 0.613,-2.9212 0.588,-4.3799c-0.0863,-4.97156 -4.3354,-9.47571 -9.2791,-10.00616c-5.08749,-0.5462 -8.88035,2.37495 -10.04604,7.93537c-1.6099,7.67379 -0.67141,15.02029 3.63893,21.66019c2.52704,3.8921 5.69301,7.3733 8.16071,11.2979c2.6114,4.1508 5.298,8.4074 6.9338,12.982c2.1811,6.101 -0.0287,12.2197 -4.4151,15.1455c-3.2244,2.1515 -7.91868,1.9484 -10.83891,-0.4702c-2.33785,-1.9372 -2.58916,-4.9835 -0.8272,-9.0083c1.14528,-2.6188 2.57619,-5.1903 3.21143,-7.9381c1.17588,-5.0893 0.09459,-9.7223 -4.49765,-13.2231"/>
  </g>
  <g stroke="null">
   <path stroke="null" fill="#525B4D" d="m7.98286,10.54925c0.90079,1.65074 -0.00175,2.98956 -0.63658,4.3776c-0.14185,0.30991 -0.21577,0.66029 -0.26672,1.00017c-0.22726,1.51488 0.60086,2.93689 1.99163,3.45507c1.4065,0.52395 2.77904,0.02249 3.62539,-1.36779c0.246,-0.40406 0.44652,-0.85435 0.57291,-1.31011c0.66802,-2.40944 0.08766,-4.57837 -1.33133,-6.57225c-0.958,-1.34558 -1.95543,-2.66541 -2.85597,-4.04844c-0.68727,-1.05514 -1.18249,-2.21689 -1.11082,-3.52525c0.06693,-1.2247 1.06237,-2.09527 2.23811,-1.99238c0.94149,0.08241 1.42698,0.90279 1.27117,2.18942c-0.04772,0.39507 -0.16309,0.78168 -0.22826,1.1755c-0.09067,0.55018 -0.22551,1.10334 -0.22928,1.656c-0.00574,0.82537 0.35063,1.50489 1.12257,1.99138c-0.6698,-1.31835 0.22901,-2.35251 0.51519,-3.49078c0.09641,-0.3831 0.16508,-0.78667 0.15835,-1.1795c-0.02324,-1.33883 -1.16752,-2.55179 -2.49885,-2.69464c-1.37005,-0.14709 -2.39146,0.63957 -2.70538,2.13698c-0.43354,2.06654 -0.18081,4.04494 0.97996,5.83305c0.68053,1.04814 1.53312,1.98562 2.19766,3.0425c0.70325,1.1178 1.42674,2.2641 1.86726,3.49603c0.58737,1.64299 -0.00773,3.29074 -1.18898,4.07866c-0.86833,0.5794 -2.13249,0.5247 -2.9189,-0.12662c-0.62958,-0.52168 -0.69726,-1.34205 -0.22276,-2.42592c0.30842,-0.70524 0.69376,-1.39774 0.86483,-2.13772c0.31666,-1.37054 0.02547,-2.6182 -1.21121,-3.56096"/>
  </g>
 </g>
</svg>